<?xml version="1.0" encoding="UTF-8"?>
<!DOCTYPE svg PUBLIC "-//W3C//DTD SVG 1.1//EN" "http://www.w3.org/Graphics/SVG/1.1/DTD/svg11.dtd">
<!-- Creator: CorelDRAW X7 -->
<svg xmlns="http://www.w3.org/2000/svg" xml:space="preserve" width="506.142mm" height="485.07mm" version="1.1" style="shape-rendering:geometricPrecision; text-rendering:geometricPrecision; image-rendering:optimizeQuality; fill-rule:evenodd; clip-rule:evenodd"
viewBox="0 0 98504 94403"
 xmlns:xlink="http://www.w3.org/1999/xlink">
 <defs>
  <style type="text/css">
   <![CDATA[
    .fil0 {fill:#FEFEFE;fill-rule:nonzero}
   ]]>
  </style>
 </defs>
 <g id="Capa_x0020_1">
  <metadata id="CorelCorpID_0Corel-Layer"/>
  <path class="fil0" d="M59520 34883l0 2055c0,3396 -2768,6155 -6163,6155 -3396,0 -6155,-2759 -6155,-6155l0 -2055c0,-1129 917,-2046 2054,-2046 1129,0 2055,917 2055,2046l0 2055c0,1129 916,2054 2046,2054 1137,0 2054,-925 2054,-2054l0 -2055c0,-1129 917,-2046 2054,-2046 1130,0 2055,917 2055,2046l0 0zm6775 17709c-391,484 -968,765 -1596,765l-22684 0c-620,0 -1197,-281 -1596,-765 -391,-483 -535,-1112 -408,-1714l4398 -20528c203,-934 1044,-1622 2003,-1622l13889 0c959,0 1808,688 2012,1622l4398 20528c127,602 -26,1231 -416,1714l0 0zm25 -23099c-603,-2819 -3133,-4865 -6019,-4865l-13889 0c-2878,0 -5408,2046 -6019,4865l-4398 20519c-390,1825 60,3710 1231,5161 1181,1452 2921,2292 4789,2292l22683 0c1868,0 3617,-840 4789,-2292 1180,-1451 1621,-3336 1231,-5161l-4398 -20519zm-50377 -8974l76321 0c722,0 1375,340 1774,917 382,543 467,1214 238,1825l-12717 34238c-909,2428 -3303,4067 -5960,4067l-51676 0 -7980 -41047zm70251 63620c0,3396 -2759,6155 -6155,6155 -3396,0 -6155,-2759 -6155,-6155 0,-3395 2759,-6154 6155,-6154 3396,0 6155,2759 6155,6154zm-38992 0c0,3396 -2759,6155 -6155,6155 -3396,0 -6155,-2759 -6155,-6155 0,-3395 2759,-6154 6155,-6154 3396,0 6155,2759 6155,6154zm38202 -25213l12718 -34239c696,-1859 433,-3956 -713,-5594 -1163,-1673 -3091,-2674 -5145,-2674l-77119 0 -2224 -11436c-560,-2886 -3099,-4983 -6044,-4983l-4823 0c-1137,0 -2054,917 -2054,2054 0,1130 917,2046 2054,2046l4823 0c984,0 1825,705 2012,1664l12437 63918c934,4813 5170,8303 10068,8303l1494 0c-1299,1723 -2105,3837 -2105,6154 0,5654 4601,10264 10264,10264 5654,0 10264,-4610 10264,-10264 0,-2317 -807,-4431 -2106,-6154l22676 0c-1299,1723 -2106,3837 -2106,6154 0,5654 4610,10264 10264,10264 5654,0 10264,-4610 10264,-10264 0,-5654 -4610,-10263 -10264,-10263l-48645 0c-2937,0 -5484,-2089 -6044,-4975l-628 -3235 50877 0c4364,0 8303,-2708 9805,-6740l0 0z"/>
 </g>
</svg>
