<?xml version="1.0" encoding="UTF-8"?>
<!DOCTYPE svg PUBLIC "-//W3C//DTD SVG 1.1//EN" "http://www.w3.org/Graphics/SVG/1.1/DTD/svg11.dtd">
<!-- Creator: CorelDRAW X7 -->
<svg xmlns="http://www.w3.org/2000/svg" xml:space="preserve" width="215.9mm" height="279.4mm" version="1.1" style="shape-rendering:geometricPrecision; text-rendering:geometricPrecision; image-rendering:optimizeQuality; fill-rule:evenodd; clip-rule:evenodd"
viewBox="0 0 21590 27940"
 xmlns:xlink="http://www.w3.org/1999/xlink">
 <defs>
  <style type="text/css">
   <![CDATA[
    .fil0 {fill:#373435;fill-rule:nonzero}
   ]]>
  </style>
 </defs>
 <g id="Capa_x0020_1">
  <metadata id="CorelCorpID_0Corel-Layer"/>
  <g id="basket-01.eps">
   <path class="fil0" d="M-44389 2728l400 6432 -7463 0 -1106 -6432 8169 0zm861 13836l-6652 0 -585 -3405 -515 -2995 7354 0 398 6400zm12749 -13836l-326 6432 -11877 0 -400 -6432 12603 0zm629 7436l7519 0 -845 6400 -6998 0 324 -6400zm376 -7436l8125 0 -849 6432 -7601 0 325 -6432zm-1705 13836l-11042 0 -399 -6400 11765 0 -324 6400zm-19305 8344c83,482 501,835 990,835l25414 0c555,0 1005,-450 1005,-1005 0,-555 -450,-1004 -1005,-1004l-24568 0 -886 -5160 28119 0 2358 -17855 -33546 0 -639 -3719c-83,-482 -501,-834 -990,-834l-6154 0c-555,0 -1005,449 -1005,1004 0,555 450,1005 1005,1005l5307 0 4595 26733z"/>
   <path class="fil0" d="M-25857 29599c-1665,0 -3015,1350 -3015,3016 0,1665 1350,3015 3015,3015 1666,0 3015,-1350 3015,-3015 0,-1666 -1349,-3016 -3015,-3016z"/>
   <path class="fil0" d="M-49487 32615c0,1665 1350,3015 3016,3015 1665,0 3015,-1350 3015,-3015 0,-1666 -1350,-3016 -3015,-3016 -1666,0 -3016,1350 -3016,3016z"/>
  </g>
 </g>
</svg>
